<svg viewBox="0 0 1920 936" fill="none" xmlns="http://www.w3.org/2000/svg"><path fill="url(#a)" d="M0-2h1920v938h-1920z"/><path d="M.29-2c0 93 250.71 21.96 250.71 221s32.5 283 490.5 283c265.47 0 333.7 95.6 398.64 186.59 58.95 82.6 115.19 161.41 313.86 161.41 196.67 0 260.36-92 322.25-181.4 38.27-55.27 75.85-109.55 143.75-140.47v-530.13h-1919.71Z" fill="url(#b)"/><path d="M.5-2h-.5v468l.5-468Z" fill="url(#c)"/><path d="M1742.74 680.86c47.67-60.54 95.95-121.87 177.26-154.63v1.9c-67.9 30.92-105.48 85.2-143.75 140.48-61.89 89.39-125.58 181.39-322.25 181.39 155.55 0 221.53-83.8 288.74-169.14Z" fill="url(#d)"/><path d="M251 219c0 169.04 32.5 253 490.5 253 273.09 0 351.26 109.89 423.31 211.16 61.58 86.57 118.68 166.84 289.19 166.84-198.67 0-254.91-78.8-313.86-161.41-64.94-90.99-133.17-186.59-398.64-186.59-458 0-490.5-83.96-490.5-283Z" fill="url(#e)"/><path d="m0 466 .5-463.47c3.2 34.12 43.14 44.47 90.21 56.68 71.83 18.63 160.29 41.56 160.29 159.79 0-137.7-85.28-166.2-182.85-198.78-8.02-2.68-16.18-5.12-24.41-7.59-14.55-4.35-29.3-8.77-43.74-14.63v468Z" fill="url(#f)"/><path fill="url(#g)" d="M0-2h1920v938h-1920z"/><defs><linearGradient id="a" x1="0" y1="672" x2="1920" y2="672" gradientUnits="userSpaceOnUse"><stop stop-color="#F0F0F0"/><stop offset="1" stop-color="#D4D4D4"/></linearGradient><linearGradient id="b" x1="236" y1="737.5" x2="1227.82" y2="119.728" gradientUnits="userSpaceOnUse"><stop offset=".182" stop-color="#D3D3D3"/><stop offset="1" stop-color="#F0F0F0"/></linearGradient><linearGradient id="c" x1="236" y1="737.5" x2="1227.82" y2="119.728" gradientUnits="userSpaceOnUse"><stop offset=".182" stop-color="#D3D3D3"/><stop offset="1" stop-color="#F0F0F0"/></linearGradient><linearGradient id="d" x1="236" y1="737.5" x2="1227.82" y2="119.728" gradientUnits="userSpaceOnUse"><stop offset=".182" stop-color="#D1D1D1"/><stop offset="1" stop-color="#CFCFCF"/></linearGradient><linearGradient id="e" x1="236" y1="737.5" x2="1227.82" y2="119.728" gradientUnits="userSpaceOnUse"><stop offset=".182" stop-color="#D1D1D1"/><stop offset="1" stop-color="#CFCFCF"/></linearGradient><linearGradient id="f" x1="236" y1="737.5" x2="1227.82" y2="119.728" gradientUnits="userSpaceOnUse"><stop offset=".182" stop-color="#D1D1D1"/><stop offset="1" stop-color="#CFCFCF"/></linearGradient><linearGradient id="g" x1="960" y1="-2" x2="960" y2="936" gradientUnits="userSpaceOnUse"><stop stop-color="#DEEDFF" stop-opacity=".6"/><stop offset="1" stop-color="#A6CCFA" stop-opacity=".5"/></linearGradient></defs></svg>